<?xml version="1.0" encoding="utf-8"?>
<!-- Generator: Adobe Illustrator 16.0.0, SVG Export Plug-In . SVG Version: 6.00 Build 0)  -->
<!DOCTYPE svg PUBLIC "-//W3C//DTD SVG 1.1//EN" "http://www.w3.org/Graphics/SVG/1.1/DTD/svg11.dtd">
<svg version="1.1" id="icons" xmlns="http://www.w3.org/2000/svg" xmlns:xlink="http://www.w3.org/1999/xlink" x="0px" y="0px"
	 width="64px" height="64px" viewBox="0 0 64 64" enable-background="new 0 0 64 64" xml:space="preserve">
<g>
	<g>
		<path fill="#545C66" d="M15.004,45.004c-0.553,0-1-0.447-1-1v-16.74c0-0.553,0.447-1,1-1s1,0.447,1,1v16.74
			C16.004,44.557,15.557,45.004,15.004,45.004z"/>
	</g>
	<g>
		<path fill="#545C66" d="M46.994,45.004c-0.553,0-1-0.447-1-1V27.262c0-0.553,0.447-1,1-1s1,0.447,1,1v16.742
			C47.994,44.557,47.547,45.004,46.994,45.004z"/>
	</g>
	<path fill="#545C66" d="M44.006,48.006c-0.553,0-1-0.447-1-1s0.447-1,1-1c1.111,0,2.016-0.904,2.016-2.016c0-0.553,0.447-1,1-1
		s1,0.447,1,1C48.021,46.204,46.22,48.006,44.006,48.006z"/>
	<path fill="#545C66" d="M43.984,47.994H18c-0.553,0-1-0.447-1-1s0.447-1,1-1h25.984c0.553,0,1,0.447,1,1
		S44.537,47.994,43.984,47.994z"/>
	<path fill="#545C66" d="M18,48.006c-2.214,0-4.016-1.802-4.016-4.016c0-0.553,0.447-1,1-1s1,0.447,1,1
		c0,1.111,0.904,2.016,2.016,2.016c0.553,0,1,0.447,1,1S18.553,48.006,18,48.006z"/>
	<polygon fill="#656D78" points="60.99,24 46.99,27.27 30.99,31 15,27.27 1.01,24 30.99,16.99 	"/>
	<path fill="#545C66" d="M46.99,43.99h0.029c0,1.67-1.35,3.02-3.02,3.02l-0.02-0.02H18v0.02c-1.67,0-3.01-1.34-3.02-3.01H15V27.27
		L30.99,31l16-3.73V43.99z"/>
	<path fill="#656D78" d="M30.992,31.996c-0.076,0-0.152-0.009-0.228-0.026l-29.984-7c-0.452-0.105-0.772-0.509-0.772-0.974
		s0.32-0.868,0.772-0.974l29.984-7.002c0.15-0.035,0.305-0.035,0.455,0l29.998,7.002c0.452,0.105,0.772,0.509,0.772,0.974
		s-0.32,0.868-0.772,0.974l-29.998,7C31.145,31.987,31.068,31.996,30.992,31.996z M5.406,23.996l25.586,5.973l25.598-5.973
		l-25.598-5.975L5.406,23.996z"/>
	<path fill="#F6BB42" d="M61.006,33.008c-0.553,0-1-0.447-1-1v-8.012c0-0.553,0.447-1,1-1s1,0.447,1,1v8.012
		C62.006,32.561,61.559,33.008,61.006,33.008z"/>
	<path fill="#656D78" d="M43.008,44.012h-24c-0.553,0-1-0.447-1-1s0.447-1,1-1h24c0.553,0,1,0.447,1,1S43.561,44.012,43.008,44.012z
		"/>
	<path fill="#F6BB42" d="M60.99,24.996H30.992c-0.553,0-1-0.447-1-1s0.447-1,1-1H60.99c0.553,0,1,0.447,1,1
		S61.543,24.996,60.99,24.996z"/>
	<polygon fill="#FFCE54" points="61,32.01 62.99,39.01 59.01,39.01 	"/>
	<path fill="#FFCE54" d="M59.009,40.008c-0.092,0-0.184-0.013-0.275-0.038c-0.531-0.152-0.839-0.705-0.688-1.236l1.998-7
		c0.152-0.532,0.71-0.834,1.236-0.688c0.531,0.152,0.839,0.705,0.688,1.236l-1.998,7C59.844,39.722,59.443,40.008,59.009,40.008z"/>
	<path fill="#FFCE54" d="M62.991,40.008c-0.436,0-0.836-0.287-0.961-0.727l-1.986-7c-0.15-0.532,0.157-1.085,0.688-1.235
		c0.531-0.153,1.084,0.157,1.235,0.688l1.986,7c0.15,0.532-0.157,1.085-0.688,1.235C63.174,39.996,63.082,40.008,62.991,40.008z"/>
	<path fill="#FFCE54" d="M62.992,40.008h-3.984c-0.553,0-1-0.447-1-1s0.447-1,1-1h3.984c0.553,0,1,0.447,1,1
		S63.545,40.008,62.992,40.008z"/>
</g>
</svg>
