<svg xmlns="http://www.w3.org/2000/svg" width="48" height="48.001" viewBox="0 0 48 48.001">
  <g>
    <path d="M19.4,35.832,35.831,19.405A9.832,9.832,0,0,0,47.424,6.526l-7.4,7.4-4.76-1.188-1.188-4.76,7.4-7.4A9.833,9.833,0,0,0,28.6,12.171L12.17,28.6A9.832,9.832,0,0,0,.577,41.477l7.4-7.4,4.76,1.188,1.188,4.76-7.4,7.4A9.832,9.832,0,0,0,19.4,35.832Z" fill="#525c6b"/>
    <path d="M19.4,35.832,35.831,19.405A9.832,9.832,0,0,0,47.424,6.526l-7.4,7.4-4.76-1.188L12.739,35.262l1.188,4.76-7.4,7.4A9.831,9.831,0,0,0,19.4,35.832Z" fill="#7a8e9b"/>
    <rect x="15.232" y="4.806" width="3.751" height="24.562" transform="translate(-7.072 17.105) rotate(-45.008)" fill="#c6c6c6"/>
    <polygon points="5.036 2.068 3.552 3.552 2.067 5.036 5.77 11.073 11.074 5.771 5.036 2.068" fill="#e2e2e2"/>
    <path d="M46.383,37.9,35.189,26.7a3.3,3.3,0,0,0-.964-.667l-5.976-2.7-2.458,2.456-2.458,2.457,2.7,5.977a3.263,3.263,0,0,0,.667.965L37.9,46.384a3.268,3.268,0,0,0,4.621,0l3.864-3.864A3.269,3.269,0,0,0,46.383,37.9Z" fill="#f87670"/>
    <rect x="34.15" y="25.189" width="2.25" height="19.53" transform="translate(-14.384 35.181) rotate(-45)" fill="#db5743"/>
  </g>
</svg>
